<svg xmlns="http://www.w3.org/2000/svg" xmlns:xlink="http://www.w3.org/1999/xlink" width="100" zoomAndPan="magnify" viewBox="0 0 75 37.5" height="50" preserveAspectRatio="xMidYMid meet" version="1.0"><defs><g/></defs><g fill="#e6e6e5" fill-opacity="1"><g transform="translate(2.282816, 25.499142)"><g><path d="M 3.0625 -7.953125 C 2.90625 -7.910156 2.789062 -7.820312 2.71875 -7.6875 C 2.707031 -7.6875 2.695312 -7.675781 2.6875 -7.65625 C 2.675781 -7.644531 2.664062 -7.628906 2.65625 -7.609375 L 4.171875 -7.609375 C 4.140625 -7.554688 4.113281 -7.488281 4.09375 -7.40625 C 4.070312 -7.332031 4.050781 -7.253906 4.03125 -7.171875 C 4.019531 -7.117188 4.007812 -7.066406 4 -7.015625 C 4 -6.972656 3.992188 -6.921875 3.984375 -6.859375 L 2.609375 -6.859375 C 2.597656 -6.773438 2.585938 -6.6875 2.578125 -6.59375 C 2.578125 -6.5 2.578125 -6.398438 2.578125 -6.296875 L 2.578125 -5.65625 L 5.765625 -5.65625 L 5.765625 -5.40625 L 2.8125 -5.40625 L 2.8125 -3.515625 L 3.453125 -3.515625 C 3.453125 -3.234375 3.46875 -2.984375 3.5 -2.765625 L 3.84375 -2.765625 C 3.851562 -2.742188 3.859375 -2.71875 3.859375 -2.6875 C 3.859375 -2.664062 3.859375 -2.644531 3.859375 -2.625 C 3.890625 -2.40625 3.957031 -2.234375 4.0625 -2.109375 C 4.144531 -1.984375 4.265625 -1.894531 4.421875 -1.84375 C 4.566406 -1.789062 4.769531 -1.765625 5.03125 -1.765625 L 9.296875 -1.765625 C 9.347656 -1.765625 9.414062 -1.738281 9.5 -1.6875 C 9.582031 -1.632812 9.625 -1.519531 9.625 -1.34375 L 9.625 -1.1875 L 8.53125 -1.1875 L 8.53125 -0.4375 L 9.5 -0.4375 L 9.5 -0.40625 C 9.5 -0.363281 9.492188 -0.320312 9.484375 -0.28125 C 9.484375 -0.25 9.476562 -0.222656 9.46875 -0.203125 L 8.28125 -0.203125 C 8.25 -0.109375 8.195312 -0.046875 8.125 -0.015625 C 8.0625 0.00390625 8.015625 0.015625 7.984375 0.015625 L 3.65625 0.015625 C 3.125 0.015625 2.675781 -0.0507812 2.3125 -0.1875 C 2.3125 -0.1875 2.304688 -0.191406 2.296875 -0.203125 L 3.484375 -0.203125 C 3.398438 -0.234375 3.316406 -0.269531 3.234375 -0.3125 C 3.148438 -0.351562 3.078125 -0.394531 3.015625 -0.4375 L 2.03125 -0.4375 C 1.863281 -0.5625 1.722656 -0.695312 1.609375 -0.84375 C 1.578125 -0.894531 1.539062 -0.945312 1.5 -1 C 1.46875 -1.0625 1.4375 -1.125 1.40625 -1.1875 L 2.5 -1.1875 C 2.375 -1.40625 2.273438 -1.679688 2.203125 -2.015625 C 2.171875 -2.128906 2.144531 -2.25 2.125 -2.375 C 2.113281 -2.5 2.097656 -2.628906 2.078125 -2.765625 L 1.734375 -2.765625 C 1.710938 -3.003906 1.703125 -3.253906 1.703125 -3.515625 L 1.0625 -3.515625 C 1.0625 -3.546875 1.0625 -3.578125 1.0625 -3.609375 C 1.0625 -3.648438 1.0625 -3.6875 1.0625 -3.71875 L 1.0625 -5.40625 L 1.9375 -5.40625 L 1.9375 -5.65625 L 0.8125 -5.65625 L 0.8125 -6.078125 C 0.8125 -6.359375 0.820312 -6.617188 0.84375 -6.859375 L 2.234375 -6.859375 C 2.253906 -6.992188 2.269531 -7.125 2.28125 -7.25 C 2.289062 -7.375 2.304688 -7.492188 2.328125 -7.609375 L 0.8125 -7.609375 C 0.820312 -7.628906 0.828125 -7.65625 0.828125 -7.6875 C 0.828125 -7.71875 0.832031 -7.742188 0.84375 -7.765625 C 0.925781 -8.128906 1.050781 -8.453125 1.21875 -8.734375 L 3.28125 -8.734375 C 3.320312 -8.804688 3.363281 -8.875 3.40625 -8.9375 C 3.4375 -8.957031 3.453125 -8.972656 3.453125 -8.984375 L 3.015625 -8.984375 C 3.117188 -9.117188 3.242188 -9.238281 3.390625 -9.34375 C 3.535156 -9.445312 3.691406 -9.53125 3.859375 -9.59375 C 3.953125 -9.613281 4.039062 -9.632812 4.125 -9.65625 C 4.207031 -9.6875 4.296875 -9.707031 4.390625 -9.71875 L 2.28125 -9.71875 C 2.53125 -9.769531 2.804688 -9.796875 3.109375 -9.796875 L 7.4375 -9.796875 C 7.457031 -9.796875 7.488281 -9.789062 7.53125 -9.78125 C 7.570312 -9.78125 7.609375 -9.757812 7.640625 -9.71875 L 9.203125 -9.71875 C 9.242188 -9.6875 9.273438 -9.644531 9.296875 -9.59375 C 9.316406 -9.550781 9.328125 -9.476562 9.328125 -9.375 L 9.328125 -8.984375 L 9.78125 -8.984375 L 9.78125 -8.734375 L 8.28125 -8.734375 L 8.28125 -8.46875 C 8.28125 -8.28125 8.238281 -8.160156 8.15625 -8.109375 C 8.070312 -8.054688 8 -8.03125 7.9375 -8.03125 L 3.671875 -8.03125 C 3.554688 -8.03125 3.445312 -8.023438 3.34375 -8.015625 C 3.238281 -8.003906 3.144531 -7.984375 3.0625 -7.953125 Z M 6.03125 -2.625 L 6.03125 -2.5 L 8.625 -2.5 L 8.625 -2.625 Z M 3.734375 -6.34375 L 3.734375 -6.203125 L 6.34375 -6.203125 L 6.34375 -6.34375 Z M 5.03125 -4.75 L 5.03125 -4.5 L 8.890625 -4.5 L 8.890625 -4.75 Z M 3.171875 -3.515625 L 3.171875 -3.390625 L 4.609375 -3.390625 L 4.609375 -3.515625 Z M 3.171875 -3.515625 "/></g></g></g><g fill="#e6e6e5" fill-opacity="1"><g transform="translate(12.37173, 25.499142)"><g><path d="M 11.4375 -0.4375 C 11.46875 -0.34375 11.476562 -0.265625 11.46875 -0.203125 L 10.515625 -0.203125 C 10.515625 -0.191406 10.515625 -0.179688 10.515625 -0.171875 C 10.515625 -0.140625 10.492188 -0.0976562 10.453125 -0.046875 C 10.421875 -0.00390625 10.359375 0.015625 10.265625 0.015625 L 8.984375 0.015625 C 8.847656 0.015625 8.742188 -0.0546875 8.671875 -0.203125 L 9.625 -0.203125 C 9.625 -0.203125 9.613281 -0.21875 9.59375 -0.25 L 9.53125 -0.4375 L 8.59375 -0.4375 L 8.296875 -1.1875 L 8.984375 -1.1875 L 8.34375 -2.765625 L 7.40625 -2.765625 L 7.109375 -3.515625 L 7.734375 -3.515625 L 6.984375 -5.40625 L 7.53125 -5.40625 L 7.4375 -5.65625 L 6.5625 -5.65625 L 6.078125 -6.859375 L 6.65625 -6.859375 L 6.359375 -7.609375 L 6.296875 -7.609375 C 6.296875 -7.609375 6.289062 -7.601562 6.28125 -7.59375 L 6 -6.859375 L 5.40625 -6.859375 L 4.9375 -5.65625 L 5.8125 -5.65625 L 5.703125 -5.40625 L 5.15625 -5.40625 L 4.765625 -4.40625 L 5.90625 -4.40625 L 5.90625 -4.28125 L 4.71875 -4.28125 L 4.5 -3.75 L 5.96875 -3.75 C 6.125 -3.75 6.238281 -3.671875 6.3125 -3.515625 L 5.6875 -3.515625 C 5.6875 -3.515625 5.6875 -3.507812 5.6875 -3.5 L 5.984375 -2.765625 L 6.921875 -2.765625 L 7.046875 -2.453125 C 7.085938 -2.316406 7.070312 -2.203125 7 -2.109375 C 6.9375 -1.992188 6.832031 -1.9375 6.6875 -1.9375 L 4.09375 -1.9375 L 3.796875 -1.1875 L 3.109375 -1.1875 L 2.8125 -0.4375 L 3.734375 -0.4375 L 3.65625 -0.234375 C 3.65625 -0.222656 3.644531 -0.210938 3.625 -0.203125 L 2.671875 -0.203125 C 2.609375 -0.0546875 2.503906 0.015625 2.359375 0.015625 L 1.0625 0.015625 C 0.96875 0.015625 0.898438 -0.00390625 0.859375 -0.046875 C 0.828125 -0.0976562 0.804688 -0.140625 0.796875 -0.171875 C 0.796875 -0.179688 0.789062 -0.191406 0.78125 -0.203125 L 1.734375 -0.203125 C 1.722656 -0.265625 1.734375 -0.34375 1.765625 -0.4375 L 0.84375 -0.4375 C 0.84375 -0.445312 0.84375 -0.453125 0.84375 -0.453125 C 0.851562 -0.453125 0.859375 -0.453125 0.859375 -0.453125 L 1.140625 -1.1875 L 1.828125 -1.1875 L 2.46875 -2.765625 L 1.53125 -2.765625 L 1.828125 -3.515625 L 2.46875 -3.515625 L 3.21875 -5.40625 L 3.78125 -5.40625 L 3.875 -5.65625 L 3 -5.65625 L 3.484375 -6.859375 L 4.0625 -6.859375 L 4.359375 -7.609375 L 3.484375 -7.609375 L 3.921875 -8.6875 C 3.921875 -8.695312 3.921875 -8.707031 3.921875 -8.71875 C 3.929688 -8.726562 3.9375 -8.734375 3.9375 -8.734375 L 3.4375 -8.734375 C 3.445312 -8.773438 3.460938 -8.816406 3.484375 -8.859375 C 3.503906 -8.910156 3.523438 -8.953125 3.546875 -8.984375 L 5.03125 -8.984375 C 5.09375 -9.117188 5.15625 -9.234375 5.21875 -9.328125 C 5.28125 -9.429688 5.347656 -9.507812 5.421875 -9.5625 C 5.441406 -9.570312 5.46875 -9.585938 5.5 -9.609375 C 5.53125 -9.640625 5.5625 -9.660156 5.59375 -9.671875 C 5.601562 -9.679688 5.613281 -9.691406 5.625 -9.703125 C 5.644531 -9.710938 5.660156 -9.71875 5.671875 -9.71875 L 5.328125 -9.71875 C 5.546875 -9.851562 5.789062 -9.921875 6.0625 -9.921875 C 6.332031 -9.921875 6.578125 -9.851562 6.796875 -9.71875 L 7.15625 -9.71875 C 7.457031 -9.550781 7.664062 -9.304688 7.78125 -8.984375 L 6.296875 -8.984375 C 6.304688 -8.960938 6.316406 -8.941406 6.328125 -8.921875 C 6.335938 -8.898438 6.34375 -8.882812 6.34375 -8.875 C 6.351562 -8.84375 6.375 -8.796875 6.40625 -8.734375 L 6.921875 -8.734375 C 6.921875 -8.734375 6.921875 -8.726562 6.921875 -8.71875 C 6.929688 -8.707031 6.9375 -8.695312 6.9375 -8.6875 L 7.375 -7.609375 L 8.25 -7.609375 L 8.5625 -6.859375 L 7.984375 -6.859375 L 8.46875 -5.65625 L 9.34375 -5.65625 L 9.4375 -5.40625 L 8.890625 -5.40625 L 9.65625 -3.515625 L 9.03125 -3.515625 L 9.328125 -2.765625 L 10.265625 -2.765625 L 10.90625 -1.1875 L 10.21875 -1.1875 L 10.515625 -0.453125 C 10.515625 -0.453125 10.515625 -0.445312 10.515625 -0.4375 Z M 5.4375 -1.5 L 5.4375 -1.375 L 7.4375 -1.375 L 7.4375 -1.5 Z M 3.359375 -0.84375 L 3.359375 -0.71875 L 4.671875 -0.71875 L 4.671875 -0.84375 Z M 3.359375 -0.84375 "/></g></g></g><g fill="#e6e6e5" fill-opacity="1"><g transform="translate(24.635284, 25.499142)"><g><path d="M 8.46875 -0.625 L 9.09375 -0.625 L 9.09375 -0.40625 C 9.09375 -0.394531 9.09375 -0.382812 9.09375 -0.375 L 8.734375 -0.375 C 8.734375 -0.207031 8.691406 -0.0976562 8.609375 -0.046875 C 8.523438 -0.00390625 8.460938 0.015625 8.421875 0.015625 L 4.484375 0.015625 C 3.972656 0.015625 3.53125 -0.0507812 3.15625 -0.1875 C 3.03125 -0.238281 2.90625 -0.300781 2.78125 -0.375 L 1.359375 -0.375 C 1.296875 -0.40625 1.234375 -0.441406 1.171875 -0.484375 C 1.109375 -0.535156 1.050781 -0.582031 1 -0.625 L 2.140625 -0.625 C 2.078125 -0.695312 2.015625 -0.773438 1.953125 -0.859375 C 1.847656 -0.984375 1.753906 -1.128906 1.671875 -1.296875 C 1.597656 -1.460938 1.53125 -1.644531 1.46875 -1.84375 L 0.875 -1.84375 C 0.875 -1.875 0.867188 -1.898438 0.859375 -1.921875 C 0.847656 -1.953125 0.835938 -1.984375 0.828125 -2.015625 C 0.804688 -2.109375 0.785156 -2.207031 0.765625 -2.3125 C 0.753906 -2.414062 0.738281 -2.523438 0.71875 -2.640625 L 1.265625 -2.640625 C 1.242188 -2.796875 1.226562 -2.960938 1.21875 -3.140625 C 1.207031 -3.328125 1.203125 -3.519531 1.203125 -3.71875 L 1.203125 -3.921875 L 0.640625 -3.921875 L 0.640625 -4.1875 L 1.234375 -4.1875 L 1.234375 -6.203125 L 0.71875 -6.203125 L 0.71875 -7 L 1.109375 -7 L 1.109375 -7.53125 L 0.1875 -7.53125 L 0.1875 -8.328125 L 1.234375 -8.328125 L 1.234375 -9.125 L 0.625 -9.125 L 0.625 -9.375 C 0.625 -9.570312 0.664062 -9.691406 0.75 -9.734375 C 0.832031 -9.773438 0.90625 -9.796875 0.96875 -9.796875 L 2.0625 -9.796875 C 2.101562 -9.796875 2.164062 -9.773438 2.25 -9.734375 C 2.34375 -9.691406 2.390625 -9.570312 2.390625 -9.375 L 2.390625 -9.125 L 3 -9.125 L 3 -8.328125 L 2.65625 -8.328125 L 2.65625 -7.53125 L 4.65625 -7.53125 L 4.65625 -7 L 2.5 -7 L 2.5 -6.203125 L 3 -6.203125 L 3 -4.1875 L 4 -4.1875 L 4 -3.921875 L 2.953125 -3.921875 L 2.953125 -3.515625 C 2.953125 -3.347656 2.957031 -3.1875 2.96875 -3.03125 C 2.988281 -2.882812 3.003906 -2.753906 3.015625 -2.640625 L 2.5 -2.640625 C 2.5 -2.628906 2.5 -2.625 2.5 -2.625 C 2.519531 -2.519531 2.546875 -2.421875 2.578125 -2.328125 C 2.609375 -2.242188 2.648438 -2.171875 2.703125 -2.109375 C 2.785156 -1.984375 2.898438 -1.894531 3.046875 -1.84375 L 3.65625 -1.84375 C 3.789062 -1.789062 3.992188 -1.765625 4.265625 -1.765625 L 8.140625 -1.765625 C 8.179688 -1.765625 8.242188 -1.738281 8.328125 -1.6875 C 8.421875 -1.632812 8.46875 -1.519531 8.46875 -1.34375 Z M 6.234375 -4.609375 L 6.234375 -4.75 L 4.5 -4.75 L 4.5 -4.609375 Z M 5.671875 -2.5625 L 5.671875 -2.703125 L 3.171875 -2.703125 L 3.171875 -2.5625 Z M 6.046875 -8.34375 L 6.046875 -8.578125 L 3.609375 -8.578125 L 3.609375 -8.34375 Z M 6.046875 -8.34375 "/></g></g></g><g fill="#e6e6e5" fill-opacity="1"><g transform="translate(34.320165, 25.499142)"><g><path d="M 3.0625 -7.953125 C 2.90625 -7.910156 2.789062 -7.820312 2.71875 -7.6875 C 2.707031 -7.6875 2.695312 -7.675781 2.6875 -7.65625 C 2.675781 -7.644531 2.664062 -7.628906 2.65625 -7.609375 L 4.171875 -7.609375 C 4.140625 -7.554688 4.113281 -7.488281 4.09375 -7.40625 C 4.070312 -7.332031 4.050781 -7.253906 4.03125 -7.171875 C 4.019531 -7.117188 4.007812 -7.066406 4 -7.015625 C 4 -6.972656 3.992188 -6.921875 3.984375 -6.859375 L 2.609375 -6.859375 C 2.597656 -6.773438 2.585938 -6.6875 2.578125 -6.59375 C 2.578125 -6.5 2.578125 -6.398438 2.578125 -6.296875 L 2.578125 -5.65625 L 5.765625 -5.65625 L 5.765625 -5.40625 L 2.8125 -5.40625 L 2.8125 -3.515625 L 3.453125 -3.515625 C 3.453125 -3.234375 3.46875 -2.984375 3.5 -2.765625 L 3.84375 -2.765625 C 3.851562 -2.742188 3.859375 -2.71875 3.859375 -2.6875 C 3.859375 -2.664062 3.859375 -2.644531 3.859375 -2.625 C 3.890625 -2.40625 3.957031 -2.234375 4.0625 -2.109375 C 4.144531 -1.984375 4.265625 -1.894531 4.421875 -1.84375 C 4.566406 -1.789062 4.769531 -1.765625 5.03125 -1.765625 L 9.296875 -1.765625 C 9.347656 -1.765625 9.414062 -1.738281 9.5 -1.6875 C 9.582031 -1.632812 9.625 -1.519531 9.625 -1.34375 L 9.625 -1.1875 L 8.53125 -1.1875 L 8.53125 -0.4375 L 9.5 -0.4375 L 9.5 -0.40625 C 9.5 -0.363281 9.492188 -0.320312 9.484375 -0.28125 C 9.484375 -0.25 9.476562 -0.222656 9.46875 -0.203125 L 8.28125 -0.203125 C 8.25 -0.109375 8.195312 -0.046875 8.125 -0.015625 C 8.0625 0.00390625 8.015625 0.015625 7.984375 0.015625 L 3.65625 0.015625 C 3.125 0.015625 2.675781 -0.0507812 2.3125 -0.1875 C 2.3125 -0.1875 2.304688 -0.191406 2.296875 -0.203125 L 3.484375 -0.203125 C 3.398438 -0.234375 3.316406 -0.269531 3.234375 -0.3125 C 3.148438 -0.351562 3.078125 -0.394531 3.015625 -0.4375 L 2.03125 -0.4375 C 1.863281 -0.5625 1.722656 -0.695312 1.609375 -0.84375 C 1.578125 -0.894531 1.539062 -0.945312 1.5 -1 C 1.46875 -1.0625 1.4375 -1.125 1.40625 -1.1875 L 2.5 -1.1875 C 2.375 -1.40625 2.273438 -1.679688 2.203125 -2.015625 C 2.171875 -2.128906 2.144531 -2.25 2.125 -2.375 C 2.113281 -2.5 2.097656 -2.628906 2.078125 -2.765625 L 1.734375 -2.765625 C 1.710938 -3.003906 1.703125 -3.253906 1.703125 -3.515625 L 1.0625 -3.515625 C 1.0625 -3.546875 1.0625 -3.578125 1.0625 -3.609375 C 1.0625 -3.648438 1.0625 -3.6875 1.0625 -3.71875 L 1.0625 -5.40625 L 1.9375 -5.40625 L 1.9375 -5.65625 L 0.8125 -5.65625 L 0.8125 -6.078125 C 0.8125 -6.359375 0.820312 -6.617188 0.84375 -6.859375 L 2.234375 -6.859375 C 2.253906 -6.992188 2.269531 -7.125 2.28125 -7.25 C 2.289062 -7.375 2.304688 -7.492188 2.328125 -7.609375 L 0.8125 -7.609375 C 0.820312 -7.628906 0.828125 -7.65625 0.828125 -7.6875 C 0.828125 -7.71875 0.832031 -7.742188 0.84375 -7.765625 C 0.925781 -8.128906 1.050781 -8.453125 1.21875 -8.734375 L 3.28125 -8.734375 C 3.320312 -8.804688 3.363281 -8.875 3.40625 -8.9375 C 3.4375 -8.957031 3.453125 -8.972656 3.453125 -8.984375 L 3.015625 -8.984375 C 3.117188 -9.117188 3.242188 -9.238281 3.390625 -9.34375 C 3.535156 -9.445312 3.691406 -9.53125 3.859375 -9.59375 C 3.953125 -9.613281 4.039062 -9.632812 4.125 -9.65625 C 4.207031 -9.6875 4.296875 -9.707031 4.390625 -9.71875 L 2.28125 -9.71875 C 2.53125 -9.769531 2.804688 -9.796875 3.109375 -9.796875 L 7.4375 -9.796875 C 7.457031 -9.796875 7.488281 -9.789062 7.53125 -9.78125 C 7.570312 -9.78125 7.609375 -9.757812 7.640625 -9.71875 L 9.203125 -9.71875 C 9.242188 -9.6875 9.273438 -9.644531 9.296875 -9.59375 C 9.316406 -9.550781 9.328125 -9.476562 9.328125 -9.375 L 9.328125 -8.984375 L 9.78125 -8.984375 L 9.78125 -8.734375 L 8.28125 -8.734375 L 8.28125 -8.46875 C 8.28125 -8.28125 8.238281 -8.160156 8.15625 -8.109375 C 8.070312 -8.054688 8 -8.03125 7.9375 -8.03125 L 3.671875 -8.03125 C 3.554688 -8.03125 3.445312 -8.023438 3.34375 -8.015625 C 3.238281 -8.003906 3.144531 -7.984375 3.0625 -7.953125 Z M 6.03125 -2.625 L 6.03125 -2.5 L 8.625 -2.5 L 8.625 -2.625 Z M 3.734375 -6.34375 L 3.734375 -6.203125 L 6.34375 -6.203125 L 6.34375 -6.34375 Z M 5.03125 -4.75 L 5.03125 -4.5 L 8.890625 -4.5 L 8.890625 -4.75 Z M 3.171875 -3.515625 L 3.171875 -3.390625 L 4.609375 -3.390625 L 4.609375 -3.515625 Z M 3.171875 -3.515625 "/></g></g></g><g fill="#2496c6" fill-opacity="1"><g transform="translate(1.400375, 24.569093)"><g><path d="M 3.0625 -7.953125 C 2.90625 -7.910156 2.789062 -7.820312 2.71875 -7.6875 C 2.707031 -7.6875 2.695312 -7.675781 2.6875 -7.65625 C 2.675781 -7.644531 2.664062 -7.628906 2.65625 -7.609375 L 4.171875 -7.609375 C 4.140625 -7.554688 4.113281 -7.488281 4.09375 -7.40625 C 4.070312 -7.332031 4.050781 -7.253906 4.03125 -7.171875 C 4.019531 -7.117188 4.007812 -7.066406 4 -7.015625 C 4 -6.972656 3.992188 -6.921875 3.984375 -6.859375 L 2.609375 -6.859375 C 2.597656 -6.773438 2.585938 -6.6875 2.578125 -6.59375 C 2.578125 -6.5 2.578125 -6.398438 2.578125 -6.296875 L 2.578125 -5.65625 L 5.765625 -5.65625 L 5.765625 -5.40625 L 2.8125 -5.40625 L 2.8125 -3.515625 L 3.453125 -3.515625 C 3.453125 -3.234375 3.46875 -2.984375 3.5 -2.765625 L 3.84375 -2.765625 C 3.851562 -2.742188 3.859375 -2.71875 3.859375 -2.6875 C 3.859375 -2.664062 3.859375 -2.644531 3.859375 -2.625 C 3.890625 -2.40625 3.957031 -2.234375 4.0625 -2.109375 C 4.144531 -1.984375 4.265625 -1.894531 4.421875 -1.84375 C 4.566406 -1.789062 4.769531 -1.765625 5.03125 -1.765625 L 9.296875 -1.765625 C 9.347656 -1.765625 9.414062 -1.738281 9.5 -1.6875 C 9.582031 -1.632812 9.625 -1.519531 9.625 -1.34375 L 9.625 -1.1875 L 8.53125 -1.1875 L 8.53125 -0.4375 L 9.5 -0.4375 L 9.5 -0.40625 C 9.5 -0.363281 9.492188 -0.320312 9.484375 -0.28125 C 9.484375 -0.25 9.476562 -0.222656 9.46875 -0.203125 L 8.28125 -0.203125 C 8.25 -0.109375 8.195312 -0.046875 8.125 -0.015625 C 8.0625 0.00390625 8.015625 0.015625 7.984375 0.015625 L 3.65625 0.015625 C 3.125 0.015625 2.675781 -0.0507812 2.3125 -0.1875 C 2.3125 -0.1875 2.304688 -0.191406 2.296875 -0.203125 L 3.484375 -0.203125 C 3.398438 -0.234375 3.316406 -0.269531 3.234375 -0.3125 C 3.148438 -0.351562 3.078125 -0.394531 3.015625 -0.4375 L 2.03125 -0.4375 C 1.863281 -0.5625 1.722656 -0.695312 1.609375 -0.84375 C 1.578125 -0.894531 1.539062 -0.945312 1.5 -1 C 1.46875 -1.0625 1.4375 -1.125 1.40625 -1.1875 L 2.5 -1.1875 C 2.375 -1.40625 2.273438 -1.679688 2.203125 -2.015625 C 2.171875 -2.128906 2.144531 -2.25 2.125 -2.375 C 2.113281 -2.5 2.097656 -2.628906 2.078125 -2.765625 L 1.734375 -2.765625 C 1.710938 -3.003906 1.703125 -3.253906 1.703125 -3.515625 L 1.0625 -3.515625 C 1.0625 -3.546875 1.0625 -3.578125 1.0625 -3.609375 C 1.0625 -3.648438 1.0625 -3.6875 1.0625 -3.71875 L 1.0625 -5.40625 L 1.9375 -5.40625 L 1.9375 -5.65625 L 0.8125 -5.65625 L 0.8125 -6.078125 C 0.8125 -6.359375 0.820312 -6.617188 0.84375 -6.859375 L 2.234375 -6.859375 C 2.253906 -6.992188 2.269531 -7.125 2.28125 -7.25 C 2.289062 -7.375 2.304688 -7.492188 2.328125 -7.609375 L 0.8125 -7.609375 C 0.820312 -7.628906 0.828125 -7.65625 0.828125 -7.6875 C 0.828125 -7.71875 0.832031 -7.742188 0.84375 -7.765625 C 0.925781 -8.128906 1.050781 -8.453125 1.21875 -8.734375 L 3.28125 -8.734375 C 3.320312 -8.804688 3.363281 -8.875 3.40625 -8.9375 C 3.4375 -8.957031 3.453125 -8.972656 3.453125 -8.984375 L 3.015625 -8.984375 C 3.117188 -9.117188 3.242188 -9.238281 3.390625 -9.34375 C 3.535156 -9.445312 3.691406 -9.53125 3.859375 -9.59375 C 3.953125 -9.613281 4.039062 -9.632812 4.125 -9.65625 C 4.207031 -9.6875 4.296875 -9.707031 4.390625 -9.71875 L 2.28125 -9.71875 C 2.53125 -9.769531 2.804688 -9.796875 3.109375 -9.796875 L 7.4375 -9.796875 C 7.457031 -9.796875 7.488281 -9.789062 7.53125 -9.78125 C 7.570312 -9.78125 7.609375 -9.757812 7.640625 -9.71875 L 9.203125 -9.71875 C 9.242188 -9.6875 9.273438 -9.644531 9.296875 -9.59375 C 9.316406 -9.550781 9.328125 -9.476562 9.328125 -9.375 L 9.328125 -8.984375 L 9.78125 -8.984375 L 9.78125 -8.734375 L 8.28125 -8.734375 L 8.28125 -8.46875 C 8.28125 -8.28125 8.238281 -8.160156 8.15625 -8.109375 C 8.070312 -8.054688 8 -8.03125 7.9375 -8.03125 L 3.671875 -8.03125 C 3.554688 -8.03125 3.445312 -8.023438 3.34375 -8.015625 C 3.238281 -8.003906 3.144531 -7.984375 3.0625 -7.953125 Z M 6.03125 -2.625 L 6.03125 -2.5 L 8.625 -2.5 L 8.625 -2.625 Z M 3.734375 -6.34375 L 3.734375 -6.203125 L 6.34375 -6.203125 L 6.34375 -6.34375 Z M 5.03125 -4.75 L 5.03125 -4.5 L 8.890625 -4.5 L 8.890625 -4.75 Z M 3.171875 -3.515625 L 3.171875 -3.390625 L 4.609375 -3.390625 L 4.609375 -3.515625 Z M 3.171875 -3.515625 "/></g></g></g><g fill="#2496c6" fill-opacity="1"><g transform="translate(11.489288, 24.569093)"><g><path d="M 11.4375 -0.4375 C 11.46875 -0.34375 11.476562 -0.265625 11.46875 -0.203125 L 10.515625 -0.203125 C 10.515625 -0.191406 10.515625 -0.179688 10.515625 -0.171875 C 10.515625 -0.140625 10.492188 -0.0976562 10.453125 -0.046875 C 10.421875 -0.00390625 10.359375 0.015625 10.265625 0.015625 L 8.984375 0.015625 C 8.847656 0.015625 8.742188 -0.0546875 8.671875 -0.203125 L 9.625 -0.203125 C 9.625 -0.203125 9.613281 -0.21875 9.59375 -0.25 L 9.53125 -0.4375 L 8.59375 -0.4375 L 8.296875 -1.1875 L 8.984375 -1.1875 L 8.34375 -2.765625 L 7.40625 -2.765625 L 7.109375 -3.515625 L 7.734375 -3.515625 L 6.984375 -5.40625 L 7.53125 -5.40625 L 7.4375 -5.65625 L 6.5625 -5.65625 L 6.078125 -6.859375 L 6.65625 -6.859375 L 6.359375 -7.609375 L 6.296875 -7.609375 C 6.296875 -7.609375 6.289062 -7.601562 6.28125 -7.59375 L 6 -6.859375 L 5.40625 -6.859375 L 4.9375 -5.65625 L 5.8125 -5.65625 L 5.703125 -5.40625 L 5.15625 -5.40625 L 4.765625 -4.40625 L 5.90625 -4.40625 L 5.90625 -4.28125 L 4.71875 -4.28125 L 4.5 -3.75 L 5.96875 -3.75 C 6.125 -3.75 6.238281 -3.671875 6.3125 -3.515625 L 5.6875 -3.515625 C 5.6875 -3.515625 5.6875 -3.507812 5.6875 -3.5 L 5.984375 -2.765625 L 6.921875 -2.765625 L 7.046875 -2.453125 C 7.085938 -2.316406 7.070312 -2.203125 7 -2.109375 C 6.9375 -1.992188 6.832031 -1.9375 6.6875 -1.9375 L 4.09375 -1.9375 L 3.796875 -1.1875 L 3.109375 -1.1875 L 2.8125 -0.4375 L 3.734375 -0.4375 L 3.65625 -0.234375 C 3.65625 -0.222656 3.644531 -0.210938 3.625 -0.203125 L 2.671875 -0.203125 C 2.609375 -0.0546875 2.503906 0.015625 2.359375 0.015625 L 1.0625 0.015625 C 0.96875 0.015625 0.898438 -0.00390625 0.859375 -0.046875 C 0.828125 -0.0976562 0.804688 -0.140625 0.796875 -0.171875 C 0.796875 -0.179688 0.789062 -0.191406 0.78125 -0.203125 L 1.734375 -0.203125 C 1.722656 -0.265625 1.734375 -0.34375 1.765625 -0.4375 L 0.84375 -0.4375 C 0.84375 -0.445312 0.84375 -0.453125 0.84375 -0.453125 C 0.851562 -0.453125 0.859375 -0.453125 0.859375 -0.453125 L 1.140625 -1.1875 L 1.828125 -1.1875 L 2.46875 -2.765625 L 1.53125 -2.765625 L 1.828125 -3.515625 L 2.46875 -3.515625 L 3.21875 -5.40625 L 3.78125 -5.40625 L 3.875 -5.65625 L 3 -5.65625 L 3.484375 -6.859375 L 4.0625 -6.859375 L 4.359375 -7.609375 L 3.484375 -7.609375 L 3.921875 -8.6875 C 3.921875 -8.695312 3.921875 -8.707031 3.921875 -8.71875 C 3.929688 -8.726562 3.9375 -8.734375 3.9375 -8.734375 L 3.4375 -8.734375 C 3.445312 -8.773438 3.460938 -8.816406 3.484375 -8.859375 C 3.503906 -8.910156 3.523438 -8.953125 3.546875 -8.984375 L 5.03125 -8.984375 C 5.09375 -9.117188 5.15625 -9.234375 5.21875 -9.328125 C 5.28125 -9.429688 5.347656 -9.507812 5.421875 -9.5625 C 5.441406 -9.570312 5.46875 -9.585938 5.5 -9.609375 C 5.53125 -9.640625 5.5625 -9.660156 5.59375 -9.671875 C 5.601562 -9.679688 5.613281 -9.691406 5.625 -9.703125 C 5.644531 -9.710938 5.660156 -9.71875 5.671875 -9.71875 L 5.328125 -9.71875 C 5.546875 -9.851562 5.789062 -9.921875 6.0625 -9.921875 C 6.332031 -9.921875 6.578125 -9.851562 6.796875 -9.71875 L 7.15625 -9.71875 C 7.457031 -9.550781 7.664062 -9.304688 7.78125 -8.984375 L 6.296875 -8.984375 C 6.304688 -8.960938 6.316406 -8.941406 6.328125 -8.921875 C 6.335938 -8.898438 6.34375 -8.882812 6.34375 -8.875 C 6.351562 -8.84375 6.375 -8.796875 6.40625 -8.734375 L 6.921875 -8.734375 C 6.921875 -8.734375 6.921875 -8.726562 6.921875 -8.71875 C 6.929688 -8.707031 6.9375 -8.695312 6.9375 -8.6875 L 7.375 -7.609375 L 8.25 -7.609375 L 8.5625 -6.859375 L 7.984375 -6.859375 L 8.46875 -5.65625 L 9.34375 -5.65625 L 9.4375 -5.40625 L 8.890625 -5.40625 L 9.65625 -3.515625 L 9.03125 -3.515625 L 9.328125 -2.765625 L 10.265625 -2.765625 L 10.90625 -1.1875 L 10.21875 -1.1875 L 10.515625 -0.453125 C 10.515625 -0.453125 10.515625 -0.445312 10.515625 -0.4375 Z M 5.4375 -1.5 L 5.4375 -1.375 L 7.4375 -1.375 L 7.4375 -1.5 Z M 3.359375 -0.84375 L 3.359375 -0.71875 L 4.671875 -0.71875 L 4.671875 -0.84375 Z M 3.359375 -0.84375 "/></g></g></g><g fill="#2496c6" fill-opacity="1"><g transform="translate(23.752842, 24.569093)"><g><path d="M 8.46875 -0.625 L 9.09375 -0.625 L 9.09375 -0.40625 C 9.09375 -0.394531 9.09375 -0.382812 9.09375 -0.375 L 8.734375 -0.375 C 8.734375 -0.207031 8.691406 -0.0976562 8.609375 -0.046875 C 8.523438 -0.00390625 8.460938 0.015625 8.421875 0.015625 L 4.484375 0.015625 C 3.972656 0.015625 3.53125 -0.0507812 3.15625 -0.1875 C 3.03125 -0.238281 2.90625 -0.300781 2.78125 -0.375 L 1.359375 -0.375 C 1.296875 -0.40625 1.234375 -0.441406 1.171875 -0.484375 C 1.109375 -0.535156 1.050781 -0.582031 1 -0.625 L 2.140625 -0.625 C 2.078125 -0.695312 2.015625 -0.773438 1.953125 -0.859375 C 1.847656 -0.984375 1.753906 -1.128906 1.671875 -1.296875 C 1.597656 -1.460938 1.53125 -1.644531 1.46875 -1.84375 L 0.875 -1.84375 C 0.875 -1.875 0.867188 -1.898438 0.859375 -1.921875 C 0.847656 -1.953125 0.835938 -1.984375 0.828125 -2.015625 C 0.804688 -2.109375 0.785156 -2.207031 0.765625 -2.3125 C 0.753906 -2.414062 0.738281 -2.523438 0.71875 -2.640625 L 1.265625 -2.640625 C 1.242188 -2.796875 1.226562 -2.960938 1.21875 -3.140625 C 1.207031 -3.328125 1.203125 -3.519531 1.203125 -3.71875 L 1.203125 -3.921875 L 0.640625 -3.921875 L 0.640625 -4.1875 L 1.234375 -4.1875 L 1.234375 -6.203125 L 0.71875 -6.203125 L 0.71875 -7 L 1.109375 -7 L 1.109375 -7.53125 L 0.1875 -7.53125 L 0.1875 -8.328125 L 1.234375 -8.328125 L 1.234375 -9.125 L 0.625 -9.125 L 0.625 -9.375 C 0.625 -9.570312 0.664062 -9.691406 0.75 -9.734375 C 0.832031 -9.773438 0.90625 -9.796875 0.96875 -9.796875 L 2.0625 -9.796875 C 2.101562 -9.796875 2.164062 -9.773438 2.25 -9.734375 C 2.34375 -9.691406 2.390625 -9.570312 2.390625 -9.375 L 2.390625 -9.125 L 3 -9.125 L 3 -8.328125 L 2.65625 -8.328125 L 2.65625 -7.53125 L 4.65625 -7.53125 L 4.65625 -7 L 2.5 -7 L 2.5 -6.203125 L 3 -6.203125 L 3 -4.1875 L 4 -4.1875 L 4 -3.921875 L 2.953125 -3.921875 L 2.953125 -3.515625 C 2.953125 -3.347656 2.957031 -3.1875 2.96875 -3.03125 C 2.988281 -2.882812 3.003906 -2.753906 3.015625 -2.640625 L 2.5 -2.640625 C 2.5 -2.628906 2.5 -2.625 2.5 -2.625 C 2.519531 -2.519531 2.546875 -2.421875 2.578125 -2.328125 C 2.609375 -2.242188 2.648438 -2.171875 2.703125 -2.109375 C 2.785156 -1.984375 2.898438 -1.894531 3.046875 -1.84375 L 3.65625 -1.84375 C 3.789062 -1.789062 3.992188 -1.765625 4.265625 -1.765625 L 8.140625 -1.765625 C 8.179688 -1.765625 8.242188 -1.738281 8.328125 -1.6875 C 8.421875 -1.632812 8.46875 -1.519531 8.46875 -1.34375 Z M 6.234375 -4.609375 L 6.234375 -4.75 L 4.5 -4.75 L 4.5 -4.609375 Z M 5.671875 -2.5625 L 5.671875 -2.703125 L 3.171875 -2.703125 L 3.171875 -2.5625 Z M 6.046875 -8.34375 L 6.046875 -8.578125 L 3.609375 -8.578125 L 3.609375 -8.34375 Z M 6.046875 -8.34375 "/></g></g></g><g fill="#2496c6" fill-opacity="1"><g transform="translate(33.437724, 24.569093)"><g><path d="M 3.0625 -7.953125 C 2.90625 -7.910156 2.789062 -7.820312 2.71875 -7.6875 C 2.707031 -7.6875 2.695312 -7.675781 2.6875 -7.65625 C 2.675781 -7.644531 2.664062 -7.628906 2.65625 -7.609375 L 4.171875 -7.609375 C 4.140625 -7.554688 4.113281 -7.488281 4.09375 -7.40625 C 4.070312 -7.332031 4.050781 -7.253906 4.03125 -7.171875 C 4.019531 -7.117188 4.007812 -7.066406 4 -7.015625 C 4 -6.972656 3.992188 -6.921875 3.984375 -6.859375 L 2.609375 -6.859375 C 2.597656 -6.773438 2.585938 -6.6875 2.578125 -6.59375 C 2.578125 -6.5 2.578125 -6.398438 2.578125 -6.296875 L 2.578125 -5.65625 L 5.765625 -5.65625 L 5.765625 -5.40625 L 2.8125 -5.40625 L 2.8125 -3.515625 L 3.453125 -3.515625 C 3.453125 -3.234375 3.46875 -2.984375 3.5 -2.765625 L 3.84375 -2.765625 C 3.851562 -2.742188 3.859375 -2.71875 3.859375 -2.6875 C 3.859375 -2.664062 3.859375 -2.644531 3.859375 -2.625 C 3.890625 -2.40625 3.957031 -2.234375 4.0625 -2.109375 C 4.144531 -1.984375 4.265625 -1.894531 4.421875 -1.84375 C 4.566406 -1.789062 4.769531 -1.765625 5.03125 -1.765625 L 9.296875 -1.765625 C 9.347656 -1.765625 9.414062 -1.738281 9.5 -1.6875 C 9.582031 -1.632812 9.625 -1.519531 9.625 -1.34375 L 9.625 -1.1875 L 8.53125 -1.1875 L 8.53125 -0.4375 L 9.5 -0.4375 L 9.5 -0.40625 C 9.5 -0.363281 9.492188 -0.320312 9.484375 -0.28125 C 9.484375 -0.25 9.476562 -0.222656 9.46875 -0.203125 L 8.28125 -0.203125 C 8.25 -0.109375 8.195312 -0.046875 8.125 -0.015625 C 8.0625 0.00390625 8.015625 0.015625 7.984375 0.015625 L 3.65625 0.015625 C 3.125 0.015625 2.675781 -0.0507812 2.3125 -0.1875 C 2.3125 -0.1875 2.304688 -0.191406 2.296875 -0.203125 L 3.484375 -0.203125 C 3.398438 -0.234375 3.316406 -0.269531 3.234375 -0.3125 C 3.148438 -0.351562 3.078125 -0.394531 3.015625 -0.4375 L 2.03125 -0.4375 C 1.863281 -0.5625 1.722656 -0.695312 1.609375 -0.84375 C 1.578125 -0.894531 1.539062 -0.945312 1.5 -1 C 1.46875 -1.0625 1.4375 -1.125 1.40625 -1.1875 L 2.5 -1.1875 C 2.375 -1.40625 2.273438 -1.679688 2.203125 -2.015625 C 2.171875 -2.128906 2.144531 -2.25 2.125 -2.375 C 2.113281 -2.5 2.097656 -2.628906 2.078125 -2.765625 L 1.734375 -2.765625 C 1.710938 -3.003906 1.703125 -3.253906 1.703125 -3.515625 L 1.0625 -3.515625 C 1.0625 -3.546875 1.0625 -3.578125 1.0625 -3.609375 C 1.0625 -3.648438 1.0625 -3.6875 1.0625 -3.71875 L 1.0625 -5.40625 L 1.9375 -5.40625 L 1.9375 -5.65625 L 0.8125 -5.65625 L 0.8125 -6.078125 C 0.8125 -6.359375 0.820312 -6.617188 0.84375 -6.859375 L 2.234375 -6.859375 C 2.253906 -6.992188 2.269531 -7.125 2.28125 -7.25 C 2.289062 -7.375 2.304688 -7.492188 2.328125 -7.609375 L 0.8125 -7.609375 C 0.820312 -7.628906 0.828125 -7.65625 0.828125 -7.6875 C 0.828125 -7.71875 0.832031 -7.742188 0.84375 -7.765625 C 0.925781 -8.128906 1.050781 -8.453125 1.21875 -8.734375 L 3.28125 -8.734375 C 3.320312 -8.804688 3.363281 -8.875 3.40625 -8.9375 C 3.4375 -8.957031 3.453125 -8.972656 3.453125 -8.984375 L 3.015625 -8.984375 C 3.117188 -9.117188 3.242188 -9.238281 3.390625 -9.34375 C 3.535156 -9.445312 3.691406 -9.53125 3.859375 -9.59375 C 3.953125 -9.613281 4.039062 -9.632812 4.125 -9.65625 C 4.207031 -9.6875 4.296875 -9.707031 4.390625 -9.71875 L 2.28125 -9.71875 C 2.53125 -9.769531 2.804688 -9.796875 3.109375 -9.796875 L 7.4375 -9.796875 C 7.457031 -9.796875 7.488281 -9.789062 7.53125 -9.78125 C 7.570312 -9.78125 7.609375 -9.757812 7.640625 -9.71875 L 9.203125 -9.71875 C 9.242188 -9.6875 9.273438 -9.644531 9.296875 -9.59375 C 9.316406 -9.550781 9.328125 -9.476562 9.328125 -9.375 L 9.328125 -8.984375 L 9.78125 -8.984375 L 9.78125 -8.734375 L 8.28125 -8.734375 L 8.28125 -8.46875 C 8.28125 -8.28125 8.238281 -8.160156 8.15625 -8.109375 C 8.070312 -8.054688 8 -8.03125 7.9375 -8.03125 L 3.671875 -8.03125 C 3.554688 -8.03125 3.445312 -8.023438 3.34375 -8.015625 C 3.238281 -8.003906 3.144531 -7.984375 3.0625 -7.953125 Z M 6.03125 -2.625 L 6.03125 -2.5 L 8.625 -2.5 L 8.625 -2.625 Z M 3.734375 -6.34375 L 3.734375 -6.203125 L 6.34375 -6.203125 L 6.34375 -6.34375 Z M 5.03125 -4.75 L 5.03125 -4.5 L 8.890625 -4.5 L 8.890625 -4.75 Z M 3.171875 -3.515625 L 3.171875 -3.390625 L 4.609375 -3.390625 L 4.609375 -3.515625 Z M 3.171875 -3.515625 "/></g></g></g><g fill="#191919" fill-opacity="1"><g transform="translate(0.493421, 25.499142)"><g><path d="M 3.0625 -7.953125 C 2.90625 -7.910156 2.789062 -7.820312 2.71875 -7.6875 C 2.707031 -7.6875 2.695312 -7.675781 2.6875 -7.65625 C 2.675781 -7.644531 2.664062 -7.628906 2.65625 -7.609375 L 4.171875 -7.609375 C 4.140625 -7.554688 4.113281 -7.488281 4.09375 -7.40625 C 4.070312 -7.332031 4.050781 -7.253906 4.03125 -7.171875 C 4.019531 -7.117188 4.007812 -7.066406 4 -7.015625 C 4 -6.972656 3.992188 -6.921875 3.984375 -6.859375 L 2.609375 -6.859375 C 2.597656 -6.773438 2.585938 -6.6875 2.578125 -6.59375 C 2.578125 -6.5 2.578125 -6.398438 2.578125 -6.296875 L 2.578125 -5.65625 L 5.765625 -5.65625 L 5.765625 -5.40625 L 2.8125 -5.40625 L 2.8125 -3.515625 L 3.453125 -3.515625 C 3.453125 -3.234375 3.46875 -2.984375 3.5 -2.765625 L 3.84375 -2.765625 C 3.851562 -2.742188 3.859375 -2.71875 3.859375 -2.6875 C 3.859375 -2.664062 3.859375 -2.644531 3.859375 -2.625 C 3.890625 -2.40625 3.957031 -2.234375 4.0625 -2.109375 C 4.144531 -1.984375 4.265625 -1.894531 4.421875 -1.84375 C 4.566406 -1.789062 4.769531 -1.765625 5.03125 -1.765625 L 9.296875 -1.765625 C 9.347656 -1.765625 9.414062 -1.738281 9.5 -1.6875 C 9.582031 -1.632812 9.625 -1.519531 9.625 -1.34375 L 9.625 -1.1875 L 8.53125 -1.1875 L 8.53125 -0.4375 L 9.5 -0.4375 L 9.5 -0.40625 C 9.5 -0.363281 9.492188 -0.320312 9.484375 -0.28125 C 9.484375 -0.25 9.476562 -0.222656 9.46875 -0.203125 L 8.28125 -0.203125 C 8.25 -0.109375 8.195312 -0.046875 8.125 -0.015625 C 8.0625 0.00390625 8.015625 0.015625 7.984375 0.015625 L 3.65625 0.015625 C 3.125 0.015625 2.675781 -0.0507812 2.3125 -0.1875 C 2.3125 -0.1875 2.304688 -0.191406 2.296875 -0.203125 L 3.484375 -0.203125 C 3.398438 -0.234375 3.316406 -0.269531 3.234375 -0.3125 C 3.148438 -0.351562 3.078125 -0.394531 3.015625 -0.4375 L 2.03125 -0.4375 C 1.863281 -0.5625 1.722656 -0.695312 1.609375 -0.84375 C 1.578125 -0.894531 1.539062 -0.945312 1.5 -1 C 1.46875 -1.0625 1.4375 -1.125 1.40625 -1.1875 L 2.5 -1.1875 C 2.375 -1.40625 2.273438 -1.679688 2.203125 -2.015625 C 2.171875 -2.128906 2.144531 -2.25 2.125 -2.375 C 2.113281 -2.5 2.097656 -2.628906 2.078125 -2.765625 L 1.734375 -2.765625 C 1.710938 -3.003906 1.703125 -3.253906 1.703125 -3.515625 L 1.0625 -3.515625 C 1.0625 -3.546875 1.0625 -3.578125 1.0625 -3.609375 C 1.0625 -3.648438 1.0625 -3.6875 1.0625 -3.71875 L 1.0625 -5.40625 L 1.9375 -5.40625 L 1.9375 -5.65625 L 0.8125 -5.65625 L 0.8125 -6.078125 C 0.8125 -6.359375 0.820312 -6.617188 0.84375 -6.859375 L 2.234375 -6.859375 C 2.253906 -6.992188 2.269531 -7.125 2.28125 -7.25 C 2.289062 -7.375 2.304688 -7.492188 2.328125 -7.609375 L 0.8125 -7.609375 C 0.820312 -7.628906 0.828125 -7.65625 0.828125 -7.6875 C 0.828125 -7.71875 0.832031 -7.742188 0.84375 -7.765625 C 0.925781 -8.128906 1.050781 -8.453125 1.21875 -8.734375 L 3.28125 -8.734375 C 3.320312 -8.804688 3.363281 -8.875 3.40625 -8.9375 C 3.4375 -8.957031 3.453125 -8.972656 3.453125 -8.984375 L 3.015625 -8.984375 C 3.117188 -9.117188 3.242188 -9.238281 3.390625 -9.34375 C 3.535156 -9.445312 3.691406 -9.53125 3.859375 -9.59375 C 3.953125 -9.613281 4.039062 -9.632812 4.125 -9.65625 C 4.207031 -9.6875 4.296875 -9.707031 4.390625 -9.71875 L 2.28125 -9.71875 C 2.53125 -9.769531 2.804688 -9.796875 3.109375 -9.796875 L 7.4375 -9.796875 C 7.457031 -9.796875 7.488281 -9.789062 7.53125 -9.78125 C 7.570312 -9.78125 7.609375 -9.757812 7.640625 -9.71875 L 9.203125 -9.71875 C 9.242188 -9.6875 9.273438 -9.644531 9.296875 -9.59375 C 9.316406 -9.550781 9.328125 -9.476562 9.328125 -9.375 L 9.328125 -8.984375 L 9.78125 -8.984375 L 9.78125 -8.734375 L 8.28125 -8.734375 L 8.28125 -8.46875 C 8.28125 -8.28125 8.238281 -8.160156 8.15625 -8.109375 C 8.070312 -8.054688 8 -8.03125 7.9375 -8.03125 L 3.671875 -8.03125 C 3.554688 -8.03125 3.445312 -8.023438 3.34375 -8.015625 C 3.238281 -8.003906 3.144531 -7.984375 3.0625 -7.953125 Z M 6.03125 -2.625 L 6.03125 -2.5 L 8.625 -2.5 L 8.625 -2.625 Z M 3.734375 -6.34375 L 3.734375 -6.203125 L 6.34375 -6.203125 L 6.34375 -6.34375 Z M 5.03125 -4.75 L 5.03125 -4.5 L 8.890625 -4.5 L 8.890625 -4.75 Z M 3.171875 -3.515625 L 3.171875 -3.390625 L 4.609375 -3.390625 L 4.609375 -3.515625 Z M 3.171875 -3.515625 "/></g></g></g><g fill="#191919" fill-opacity="1"><g transform="translate(10.582334, 25.499142)"><g><path d="M 11.4375 -0.4375 C 11.46875 -0.34375 11.476562 -0.265625 11.46875 -0.203125 L 10.515625 -0.203125 C 10.515625 -0.191406 10.515625 -0.179688 10.515625 -0.171875 C 10.515625 -0.140625 10.492188 -0.0976562 10.453125 -0.046875 C 10.421875 -0.00390625 10.359375 0.015625 10.265625 0.015625 L 8.984375 0.015625 C 8.847656 0.015625 8.742188 -0.0546875 8.671875 -0.203125 L 9.625 -0.203125 C 9.625 -0.203125 9.613281 -0.21875 9.59375 -0.25 L 9.53125 -0.4375 L 8.59375 -0.4375 L 8.296875 -1.1875 L 8.984375 -1.1875 L 8.34375 -2.765625 L 7.40625 -2.765625 L 7.109375 -3.515625 L 7.734375 -3.515625 L 6.984375 -5.40625 L 7.53125 -5.40625 L 7.4375 -5.65625 L 6.5625 -5.65625 L 6.078125 -6.859375 L 6.65625 -6.859375 L 6.359375 -7.609375 L 6.296875 -7.609375 C 6.296875 -7.609375 6.289062 -7.601562 6.28125 -7.59375 L 6 -6.859375 L 5.40625 -6.859375 L 4.9375 -5.65625 L 5.8125 -5.65625 L 5.703125 -5.40625 L 5.15625 -5.40625 L 4.765625 -4.40625 L 5.90625 -4.40625 L 5.90625 -4.28125 L 4.71875 -4.28125 L 4.5 -3.75 L 5.96875 -3.75 C 6.125 -3.75 6.238281 -3.671875 6.3125 -3.515625 L 5.6875 -3.515625 C 5.6875 -3.515625 5.6875 -3.507812 5.6875 -3.5 L 5.984375 -2.765625 L 6.921875 -2.765625 L 7.046875 -2.453125 C 7.085938 -2.316406 7.070312 -2.203125 7 -2.109375 C 6.9375 -1.992188 6.832031 -1.9375 6.6875 -1.9375 L 4.09375 -1.9375 L 3.796875 -1.1875 L 3.109375 -1.1875 L 2.8125 -0.4375 L 3.734375 -0.4375 L 3.65625 -0.234375 C 3.65625 -0.222656 3.644531 -0.210938 3.625 -0.203125 L 2.671875 -0.203125 C 2.609375 -0.0546875 2.503906 0.015625 2.359375 0.015625 L 1.0625 0.015625 C 0.96875 0.015625 0.898438 -0.00390625 0.859375 -0.046875 C 0.828125 -0.0976562 0.804688 -0.140625 0.796875 -0.171875 C 0.796875 -0.179688 0.789062 -0.191406 0.78125 -0.203125 L 1.734375 -0.203125 C 1.722656 -0.265625 1.734375 -0.34375 1.765625 -0.4375 L 0.84375 -0.4375 C 0.84375 -0.445312 0.84375 -0.453125 0.84375 -0.453125 C 0.851562 -0.453125 0.859375 -0.453125 0.859375 -0.453125 L 1.140625 -1.1875 L 1.828125 -1.1875 L 2.46875 -2.765625 L 1.53125 -2.765625 L 1.828125 -3.515625 L 2.46875 -3.515625 L 3.21875 -5.40625 L 3.78125 -5.40625 L 3.875 -5.65625 L 3 -5.65625 L 3.484375 -6.859375 L 4.0625 -6.859375 L 4.359375 -7.609375 L 3.484375 -7.609375 L 3.921875 -8.6875 C 3.921875 -8.695312 3.921875 -8.707031 3.921875 -8.71875 C 3.929688 -8.726562 3.9375 -8.734375 3.9375 -8.734375 L 3.4375 -8.734375 C 3.445312 -8.773438 3.460938 -8.816406 3.484375 -8.859375 C 3.503906 -8.910156 3.523438 -8.953125 3.546875 -8.984375 L 5.03125 -8.984375 C 5.09375 -9.117188 5.15625 -9.234375 5.21875 -9.328125 C 5.28125 -9.429688 5.347656 -9.507812 5.421875 -9.5625 C 5.441406 -9.570312 5.46875 -9.585938 5.5 -9.609375 C 5.53125 -9.640625 5.5625 -9.660156 5.59375 -9.671875 C 5.601562 -9.679688 5.613281 -9.691406 5.625 -9.703125 C 5.644531 -9.710938 5.660156 -9.71875 5.671875 -9.71875 L 5.328125 -9.71875 C 5.546875 -9.851562 5.789062 -9.921875 6.0625 -9.921875 C 6.332031 -9.921875 6.578125 -9.851562 6.796875 -9.71875 L 7.15625 -9.71875 C 7.457031 -9.550781 7.664062 -9.304688 7.78125 -8.984375 L 6.296875 -8.984375 C 6.304688 -8.960938 6.316406 -8.941406 6.328125 -8.921875 C 6.335938 -8.898438 6.34375 -8.882812 6.34375 -8.875 C 6.351562 -8.84375 6.375 -8.796875 6.40625 -8.734375 L 6.921875 -8.734375 C 6.921875 -8.734375 6.921875 -8.726562 6.921875 -8.71875 C 6.929688 -8.707031 6.9375 -8.695312 6.9375 -8.6875 L 7.375 -7.609375 L 8.25 -7.609375 L 8.5625 -6.859375 L 7.984375 -6.859375 L 8.46875 -5.65625 L 9.34375 -5.65625 L 9.4375 -5.40625 L 8.890625 -5.40625 L 9.65625 -3.515625 L 9.03125 -3.515625 L 9.328125 -2.765625 L 10.265625 -2.765625 L 10.90625 -1.1875 L 10.21875 -1.1875 L 10.515625 -0.453125 C 10.515625 -0.453125 10.515625 -0.445312 10.515625 -0.4375 Z M 5.4375 -1.5 L 5.4375 -1.375 L 7.4375 -1.375 L 7.4375 -1.5 Z M 3.359375 -0.84375 L 3.359375 -0.71875 L 4.671875 -0.71875 L 4.671875 -0.84375 Z M 3.359375 -0.84375 "/></g></g></g><g fill="#191919" fill-opacity="1"><g transform="translate(22.845889, 25.499142)"><g><path d="M 8.46875 -0.625 L 9.09375 -0.625 L 9.09375 -0.40625 C 9.09375 -0.394531 9.09375 -0.382812 9.09375 -0.375 L 8.734375 -0.375 C 8.734375 -0.207031 8.691406 -0.0976562 8.609375 -0.046875 C 8.523438 -0.00390625 8.460938 0.015625 8.421875 0.015625 L 4.484375 0.015625 C 3.972656 0.015625 3.53125 -0.0507812 3.15625 -0.1875 C 3.03125 -0.238281 2.90625 -0.300781 2.78125 -0.375 L 1.359375 -0.375 C 1.296875 -0.40625 1.234375 -0.441406 1.171875 -0.484375 C 1.109375 -0.535156 1.050781 -0.582031 1 -0.625 L 2.140625 -0.625 C 2.078125 -0.695312 2.015625 -0.773438 1.953125 -0.859375 C 1.847656 -0.984375 1.753906 -1.128906 1.671875 -1.296875 C 1.597656 -1.460938 1.53125 -1.644531 1.46875 -1.84375 L 0.875 -1.84375 C 0.875 -1.875 0.867188 -1.898438 0.859375 -1.921875 C 0.847656 -1.953125 0.835938 -1.984375 0.828125 -2.015625 C 0.804688 -2.109375 0.785156 -2.207031 0.765625 -2.3125 C 0.753906 -2.414062 0.738281 -2.523438 0.71875 -2.640625 L 1.265625 -2.640625 C 1.242188 -2.796875 1.226562 -2.960938 1.21875 -3.140625 C 1.207031 -3.328125 1.203125 -3.519531 1.203125 -3.71875 L 1.203125 -3.921875 L 0.640625 -3.921875 L 0.640625 -4.1875 L 1.234375 -4.1875 L 1.234375 -6.203125 L 0.71875 -6.203125 L 0.71875 -7 L 1.109375 -7 L 1.109375 -7.53125 L 0.1875 -7.53125 L 0.1875 -8.328125 L 1.234375 -8.328125 L 1.234375 -9.125 L 0.625 -9.125 L 0.625 -9.375 C 0.625 -9.570312 0.664062 -9.691406 0.75 -9.734375 C 0.832031 -9.773438 0.90625 -9.796875 0.96875 -9.796875 L 2.0625 -9.796875 C 2.101562 -9.796875 2.164062 -9.773438 2.25 -9.734375 C 2.34375 -9.691406 2.390625 -9.570312 2.390625 -9.375 L 2.390625 -9.125 L 3 -9.125 L 3 -8.328125 L 2.65625 -8.328125 L 2.65625 -7.53125 L 4.65625 -7.53125 L 4.65625 -7 L 2.5 -7 L 2.5 -6.203125 L 3 -6.203125 L 3 -4.1875 L 4 -4.1875 L 4 -3.921875 L 2.953125 -3.921875 L 2.953125 -3.515625 C 2.953125 -3.347656 2.957031 -3.1875 2.96875 -3.03125 C 2.988281 -2.882812 3.003906 -2.753906 3.015625 -2.640625 L 2.5 -2.640625 C 2.5 -2.628906 2.5 -2.625 2.5 -2.625 C 2.519531 -2.519531 2.546875 -2.421875 2.578125 -2.328125 C 2.609375 -2.242188 2.648438 -2.171875 2.703125 -2.109375 C 2.785156 -1.984375 2.898438 -1.894531 3.046875 -1.84375 L 3.65625 -1.84375 C 3.789062 -1.789062 3.992188 -1.765625 4.265625 -1.765625 L 8.140625 -1.765625 C 8.179688 -1.765625 8.242188 -1.738281 8.328125 -1.6875 C 8.421875 -1.632812 8.46875 -1.519531 8.46875 -1.34375 Z M 6.234375 -4.609375 L 6.234375 -4.75 L 4.5 -4.75 L 4.5 -4.609375 Z M 5.671875 -2.5625 L 5.671875 -2.703125 L 3.171875 -2.703125 L 3.171875 -2.5625 Z M 6.046875 -8.34375 L 6.046875 -8.578125 L 3.609375 -8.578125 L 3.609375 -8.34375 Z M 6.046875 -8.34375 "/></g></g></g><g fill="#191919" fill-opacity="1"><g transform="translate(32.53077, 25.499142)"><g><path d="M 3.0625 -7.953125 C 2.90625 -7.910156 2.789062 -7.820312 2.71875 -7.6875 C 2.707031 -7.6875 2.695312 -7.675781 2.6875 -7.65625 C 2.675781 -7.644531 2.664062 -7.628906 2.65625 -7.609375 L 4.171875 -7.609375 C 4.140625 -7.554688 4.113281 -7.488281 4.09375 -7.40625 C 4.070312 -7.332031 4.050781 -7.253906 4.03125 -7.171875 C 4.019531 -7.117188 4.007812 -7.066406 4 -7.015625 C 4 -6.972656 3.992188 -6.921875 3.984375 -6.859375 L 2.609375 -6.859375 C 2.597656 -6.773438 2.585938 -6.6875 2.578125 -6.59375 C 2.578125 -6.5 2.578125 -6.398438 2.578125 -6.296875 L 2.578125 -5.65625 L 5.765625 -5.65625 L 5.765625 -5.40625 L 2.8125 -5.40625 L 2.8125 -3.515625 L 3.453125 -3.515625 C 3.453125 -3.234375 3.46875 -2.984375 3.5 -2.765625 L 3.84375 -2.765625 C 3.851562 -2.742188 3.859375 -2.71875 3.859375 -2.6875 C 3.859375 -2.664062 3.859375 -2.644531 3.859375 -2.625 C 3.890625 -2.40625 3.957031 -2.234375 4.0625 -2.109375 C 4.144531 -1.984375 4.265625 -1.894531 4.421875 -1.84375 C 4.566406 -1.789062 4.769531 -1.765625 5.03125 -1.765625 L 9.296875 -1.765625 C 9.347656 -1.765625 9.414062 -1.738281 9.5 -1.6875 C 9.582031 -1.632812 9.625 -1.519531 9.625 -1.34375 L 9.625 -1.1875 L 8.53125 -1.1875 L 8.53125 -0.4375 L 9.5 -0.4375 L 9.5 -0.40625 C 9.5 -0.363281 9.492188 -0.320312 9.484375 -0.28125 C 9.484375 -0.25 9.476562 -0.222656 9.46875 -0.203125 L 8.28125 -0.203125 C 8.25 -0.109375 8.195312 -0.046875 8.125 -0.015625 C 8.0625 0.00390625 8.015625 0.015625 7.984375 0.015625 L 3.65625 0.015625 C 3.125 0.015625 2.675781 -0.0507812 2.3125 -0.1875 C 2.3125 -0.1875 2.304688 -0.191406 2.296875 -0.203125 L 3.484375 -0.203125 C 3.398438 -0.234375 3.316406 -0.269531 3.234375 -0.3125 C 3.148438 -0.351562 3.078125 -0.394531 3.015625 -0.4375 L 2.03125 -0.4375 C 1.863281 -0.5625 1.722656 -0.695312 1.609375 -0.84375 C 1.578125 -0.894531 1.539062 -0.945312 1.5 -1 C 1.46875 -1.0625 1.4375 -1.125 1.40625 -1.1875 L 2.5 -1.1875 C 2.375 -1.40625 2.273438 -1.679688 2.203125 -2.015625 C 2.171875 -2.128906 2.144531 -2.25 2.125 -2.375 C 2.113281 -2.5 2.097656 -2.628906 2.078125 -2.765625 L 1.734375 -2.765625 C 1.710938 -3.003906 1.703125 -3.253906 1.703125 -3.515625 L 1.0625 -3.515625 C 1.0625 -3.546875 1.0625 -3.578125 1.0625 -3.609375 C 1.0625 -3.648438 1.0625 -3.6875 1.0625 -3.71875 L 1.0625 -5.40625 L 1.9375 -5.40625 L 1.9375 -5.65625 L 0.8125 -5.65625 L 0.8125 -6.078125 C 0.8125 -6.359375 0.820312 -6.617188 0.84375 -6.859375 L 2.234375 -6.859375 C 2.253906 -6.992188 2.269531 -7.125 2.28125 -7.25 C 2.289062 -7.375 2.304688 -7.492188 2.328125 -7.609375 L 0.8125 -7.609375 C 0.820312 -7.628906 0.828125 -7.65625 0.828125 -7.6875 C 0.828125 -7.71875 0.832031 -7.742188 0.84375 -7.765625 C 0.925781 -8.128906 1.050781 -8.453125 1.21875 -8.734375 L 3.28125 -8.734375 C 3.320312 -8.804688 3.363281 -8.875 3.40625 -8.9375 C 3.4375 -8.957031 3.453125 -8.972656 3.453125 -8.984375 L 3.015625 -8.984375 C 3.117188 -9.117188 3.242188 -9.238281 3.390625 -9.34375 C 3.535156 -9.445312 3.691406 -9.53125 3.859375 -9.59375 C 3.953125 -9.613281 4.039062 -9.632812 4.125 -9.65625 C 4.207031 -9.6875 4.296875 -9.707031 4.390625 -9.71875 L 2.28125 -9.71875 C 2.53125 -9.769531 2.804688 -9.796875 3.109375 -9.796875 L 7.4375 -9.796875 C 7.457031 -9.796875 7.488281 -9.789062 7.53125 -9.78125 C 7.570312 -9.78125 7.609375 -9.757812 7.640625 -9.71875 L 9.203125 -9.71875 C 9.242188 -9.6875 9.273438 -9.644531 9.296875 -9.59375 C 9.316406 -9.550781 9.328125 -9.476562 9.328125 -9.375 L 9.328125 -8.984375 L 9.78125 -8.984375 L 9.78125 -8.734375 L 8.28125 -8.734375 L 8.28125 -8.46875 C 8.28125 -8.28125 8.238281 -8.160156 8.15625 -8.109375 C 8.070312 -8.054688 8 -8.03125 7.9375 -8.03125 L 3.671875 -8.03125 C 3.554688 -8.03125 3.445312 -8.023438 3.34375 -8.015625 C 3.238281 -8.003906 3.144531 -7.984375 3.0625 -7.953125 Z M 6.03125 -2.625 L 6.03125 -2.5 L 8.625 -2.5 L 8.625 -2.625 Z M 3.734375 -6.34375 L 3.734375 -6.203125 L 6.34375 -6.203125 L 6.34375 -6.34375 Z M 5.03125 -4.75 L 5.03125 -4.5 L 8.890625 -4.5 L 8.890625 -4.75 Z M 3.171875 -3.515625 L 3.171875 -3.390625 L 4.609375 -3.390625 L 4.609375 -3.515625 Z M 3.171875 -3.515625 "/></g></g></g><g fill="#e6e6e5" fill-opacity="1"><g transform="translate(43.047977, 31.951321)"><g><path d="M 28.359375 -0.953125 L 30.921875 -0.953125 C 30.921875 -0.929688 30.921875 -0.890625 30.921875 -0.828125 C 30.921875 -0.765625 30.921875 -0.710938 30.921875 -0.671875 C 30.878906 -0.222656 30.625 0 30.15625 0 L 26.0625 0 C 25.726562 0 25.484375 -0.046875 25.328125 -0.140625 C 25.160156 -0.253906 24.984375 -0.453125 24.796875 -0.734375 L 24.65625 -0.953125 L 22.078125 -0.953125 L 20.59375 -3.03125 L 23.484375 -3.03125 L 21.71875 -5.53125 L 19.640625 -5.53125 L 17.03125 -9.203125 L 18.796875 -9.203125 L 17.671875 -10.828125 L 16.546875 -9.203125 L 14.78125 -9.203125 L 12.171875 -5.53125 L 14.28125 -5.53125 L 12.515625 -3.03125 L 9.625 -3.03125 L 8.1875 -0.953125 L 10.71875 -0.953125 L 10.546875 -0.703125 C 10.398438 -0.472656 10.234375 -0.296875 10.046875 -0.171875 C 9.910156 -0.0546875 9.664062 0 9.3125 0 L 5.390625 0 C 4.941406 0 4.695312 -0.222656 4.65625 -0.671875 C 4.65625 -0.710938 4.65625 -0.765625 4.65625 -0.828125 C 4.65625 -0.890625 4.65625 -0.929688 4.65625 -0.953125 L 2.078125 -0.953125 C 2.097656 -1.191406 2.179688 -1.390625 2.328125 -1.546875 L 3.34375 -3.03125 L 6.203125 -3.03125 L 8 -5.53125 L 5.890625 -5.53125 L 8.5 -9.203125 L 10.265625 -9.203125 L 12.171875 -11.921875 L 7.09375 -11.921875 L 8.21875 -13.5 L 13.75 -13.5 L 15.015625 -15.265625 L 14.171875 -16.40625 L 11.25 -16.40625 L 8.953125 -19.609375 L 11.53125 -19.609375 L 9.625 -22.25 L 8.53125 -22.25 L 8.5 -22.28125 L 7.46875 -22.28125 L 5.609375 -24.9375 L 7.796875 -24.9375 L 5.953125 -27.5 C 5.929688 -27.53125 5.921875 -27.550781 5.921875 -27.5625 C 5.921875 -27.570312 5.910156 -27.585938 5.890625 -27.609375 L 3.203125 -27.609375 C 3.085938 -27.890625 3.039062 -28.148438 3.0625 -28.390625 C 3.113281 -28.835938 3.375 -29.0625 3.84375 -29.0625 L 7.9375 -29.0625 C 8.238281 -29.0625 8.484375 -29 8.671875 -28.875 C 8.890625 -28.71875 9.054688 -28.546875 9.171875 -28.359375 L 9.65625 -27.609375 L 12.34375 -27.609375 L 14.21875 -24.9375 L 12.03125 -24.9375 L 13.859375 -22.28125 L 14.875 -22.28125 L 14.875 -22.25 L 16.015625 -22.25 L 17.84375 -19.609375 L 18.265625 -19.609375 L 20.203125 -22.25 L 19.078125 -22.25 L 19.109375 -22.28125 L 18.09375 -22.28125 L 20.03125 -24.9375 L 22.21875 -24.9375 L 24.1875 -27.609375 L 21.515625 -27.609375 L 22.078125 -28.359375 C 22.171875 -28.546875 22.320312 -28.71875 22.53125 -28.875 C 22.71875 -29 22.96875 -29.0625 23.28125 -29.0625 L 27.15625 -29.0625 C 27.625 -29.0625 27.894531 -28.835938 27.96875 -28.390625 C 27.988281 -28.128906 27.929688 -27.867188 27.796875 -27.609375 L 30.46875 -27.609375 C 30.46875 -27.585938 30.445312 -27.550781 30.40625 -27.5 L 28.53125 -24.9375 L 26.34375 -24.9375 L 24.4375 -22.28125 L 25.46875 -22.28125 L 25.421875 -22.25 L 26.5625 -22.25 L 24.609375 -19.609375 L 22.046875 -19.609375 L 19.71875 -16.40625 L 22.640625 -16.40625 L 21.65625 -15.0625 L 22.75 -13.5 L 20 -13.5 L 21.125 -11.921875 L 23.421875 -11.921875 L 25.328125 -9.203125 L 23.5625 -9.203125 L 26.125 -5.53125 L 28.21875 -5.53125 L 29.96875 -3.03125 L 27.125 -3.03125 L 28.140625 -1.546875 C 28.285156 -1.390625 28.359375 -1.191406 28.359375 -0.953125 Z M 10.09375 -14.453125 L 10.09375 -15.375 L 6.953125 -15.375 L 6.953125 -14.453125 Z M 27.359375 -17.53125 L 27.359375 -18.234375 L 22.921875 -18.234375 L 22.921875 -17.53125 Z M 25.75 -12.375 L 25.75 -13.046875 L 22.75 -13.046875 L 22.75 -12.375 Z M 20.59375 -26.796875 L 20.59375 -27.46875 L 14.78125 -27.46875 L 14.78125 -26.796875 Z M 17.671875 -1.65625 L 17.671875 -2.359375 L 11.84375 -2.359375 L 11.84375 -1.65625 Z M 17.671875 -1.65625 "/></g></g></g><g fill="#2496c6" fill-opacity="1"><g transform="translate(40.429607, 29.191694)"><g><path d="M 28.359375 -0.953125 L 30.921875 -0.953125 C 30.921875 -0.929688 30.921875 -0.890625 30.921875 -0.828125 C 30.921875 -0.765625 30.921875 -0.710938 30.921875 -0.671875 C 30.878906 -0.222656 30.625 0 30.15625 0 L 26.0625 0 C 25.726562 0 25.484375 -0.046875 25.328125 -0.140625 C 25.160156 -0.253906 24.984375 -0.453125 24.796875 -0.734375 L 24.65625 -0.953125 L 22.078125 -0.953125 L 20.59375 -3.03125 L 23.484375 -3.03125 L 21.71875 -5.53125 L 19.640625 -5.53125 L 17.03125 -9.203125 L 18.796875 -9.203125 L 17.671875 -10.828125 L 16.546875 -9.203125 L 14.78125 -9.203125 L 12.171875 -5.53125 L 14.28125 -5.53125 L 12.515625 -3.03125 L 9.625 -3.03125 L 8.1875 -0.953125 L 10.71875 -0.953125 L 10.546875 -0.703125 C 10.398438 -0.472656 10.234375 -0.296875 10.046875 -0.171875 C 9.910156 -0.0546875 9.664062 0 9.3125 0 L 5.390625 0 C 4.941406 0 4.695312 -0.222656 4.65625 -0.671875 C 4.65625 -0.710938 4.65625 -0.765625 4.65625 -0.828125 C 4.65625 -0.890625 4.65625 -0.929688 4.65625 -0.953125 L 2.078125 -0.953125 C 2.097656 -1.191406 2.179688 -1.390625 2.328125 -1.546875 L 3.34375 -3.03125 L 6.203125 -3.03125 L 8 -5.53125 L 5.890625 -5.53125 L 8.5 -9.203125 L 10.265625 -9.203125 L 12.171875 -11.921875 L 7.09375 -11.921875 L 8.21875 -13.5 L 13.75 -13.5 L 15.015625 -15.265625 L 14.171875 -16.40625 L 11.25 -16.40625 L 8.953125 -19.609375 L 11.53125 -19.609375 L 9.625 -22.25 L 8.53125 -22.25 L 8.5 -22.28125 L 7.46875 -22.28125 L 5.609375 -24.9375 L 7.796875 -24.9375 L 5.953125 -27.5 C 5.929688 -27.53125 5.921875 -27.550781 5.921875 -27.5625 C 5.921875 -27.570312 5.910156 -27.585938 5.890625 -27.609375 L 3.203125 -27.609375 C 3.085938 -27.890625 3.039062 -28.148438 3.0625 -28.390625 C 3.113281 -28.835938 3.375 -29.0625 3.84375 -29.0625 L 7.9375 -29.0625 C 8.238281 -29.0625 8.484375 -29 8.671875 -28.875 C 8.890625 -28.71875 9.054688 -28.546875 9.171875 -28.359375 L 9.65625 -27.609375 L 12.34375 -27.609375 L 14.21875 -24.9375 L 12.03125 -24.9375 L 13.859375 -22.28125 L 14.875 -22.28125 L 14.875 -22.25 L 16.015625 -22.25 L 17.84375 -19.609375 L 18.265625 -19.609375 L 20.203125 -22.25 L 19.078125 -22.25 L 19.109375 -22.28125 L 18.09375 -22.28125 L 20.03125 -24.9375 L 22.21875 -24.9375 L 24.1875 -27.609375 L 21.515625 -27.609375 L 22.078125 -28.359375 C 22.171875 -28.546875 22.320312 -28.71875 22.53125 -28.875 C 22.71875 -29 22.96875 -29.0625 23.28125 -29.0625 L 27.15625 -29.0625 C 27.625 -29.0625 27.894531 -28.835938 27.96875 -28.390625 C 27.988281 -28.128906 27.929688 -27.867188 27.796875 -27.609375 L 30.46875 -27.609375 C 30.46875 -27.585938 30.445312 -27.550781 30.40625 -27.5 L 28.53125 -24.9375 L 26.34375 -24.9375 L 24.4375 -22.28125 L 25.46875 -22.28125 L 25.421875 -22.25 L 26.5625 -22.25 L 24.609375 -19.609375 L 22.046875 -19.609375 L 19.71875 -16.40625 L 22.640625 -16.40625 L 21.65625 -15.0625 L 22.75 -13.5 L 20 -13.5 L 21.125 -11.921875 L 23.421875 -11.921875 L 25.328125 -9.203125 L 23.5625 -9.203125 L 26.125 -5.53125 L 28.21875 -5.53125 L 29.96875 -3.03125 L 27.125 -3.03125 L 28.140625 -1.546875 C 28.285156 -1.390625 28.359375 -1.191406 28.359375 -0.953125 Z M 10.09375 -14.453125 L 10.09375 -15.375 L 6.953125 -15.375 L 6.953125 -14.453125 Z M 27.359375 -17.53125 L 27.359375 -18.234375 L 22.921875 -18.234375 L 22.921875 -17.53125 Z M 25.75 -12.375 L 25.75 -13.046875 L 22.75 -13.046875 L 22.75 -12.375 Z M 20.59375 -26.796875 L 20.59375 -27.46875 L 14.78125 -27.46875 L 14.78125 -26.796875 Z M 17.671875 -1.65625 L 17.671875 -2.359375 L 11.84375 -2.359375 L 11.84375 -1.65625 Z M 17.671875 -1.65625 "/></g></g></g><g fill="#191919" fill-opacity="1"><g transform="translate(37.738507, 31.951321)"><g><path d="M 28.359375 -0.953125 L 30.921875 -0.953125 C 30.921875 -0.929688 30.921875 -0.890625 30.921875 -0.828125 C 30.921875 -0.765625 30.921875 -0.710938 30.921875 -0.671875 C 30.878906 -0.222656 30.625 0 30.15625 0 L 26.0625 0 C 25.726562 0 25.484375 -0.046875 25.328125 -0.140625 C 25.160156 -0.253906 24.984375 -0.453125 24.796875 -0.734375 L 24.65625 -0.953125 L 22.078125 -0.953125 L 20.59375 -3.03125 L 23.484375 -3.03125 L 21.71875 -5.53125 L 19.640625 -5.53125 L 17.03125 -9.203125 L 18.796875 -9.203125 L 17.671875 -10.828125 L 16.546875 -9.203125 L 14.78125 -9.203125 L 12.171875 -5.53125 L 14.28125 -5.53125 L 12.515625 -3.03125 L 9.625 -3.03125 L 8.1875 -0.953125 L 10.71875 -0.953125 L 10.546875 -0.703125 C 10.398438 -0.472656 10.234375 -0.296875 10.046875 -0.171875 C 9.910156 -0.0546875 9.664062 0 9.3125 0 L 5.390625 0 C 4.941406 0 4.695312 -0.222656 4.65625 -0.671875 C 4.65625 -0.710938 4.65625 -0.765625 4.65625 -0.828125 C 4.65625 -0.890625 4.65625 -0.929688 4.65625 -0.953125 L 2.078125 -0.953125 C 2.097656 -1.191406 2.179688 -1.390625 2.328125 -1.546875 L 3.34375 -3.03125 L 6.203125 -3.03125 L 8 -5.53125 L 5.890625 -5.53125 L 8.5 -9.203125 L 10.265625 -9.203125 L 12.171875 -11.921875 L 7.09375 -11.921875 L 8.21875 -13.5 L 13.75 -13.5 L 15.015625 -15.265625 L 14.171875 -16.40625 L 11.25 -16.40625 L 8.953125 -19.609375 L 11.53125 -19.609375 L 9.625 -22.25 L 8.53125 -22.25 L 8.5 -22.28125 L 7.46875 -22.28125 L 5.609375 -24.9375 L 7.796875 -24.9375 L 5.953125 -27.5 C 5.929688 -27.53125 5.921875 -27.550781 5.921875 -27.5625 C 5.921875 -27.570312 5.910156 -27.585938 5.890625 -27.609375 L 3.203125 -27.609375 C 3.085938 -27.890625 3.039062 -28.148438 3.0625 -28.390625 C 3.113281 -28.835938 3.375 -29.0625 3.84375 -29.0625 L 7.9375 -29.0625 C 8.238281 -29.0625 8.484375 -29 8.671875 -28.875 C 8.890625 -28.71875 9.054688 -28.546875 9.171875 -28.359375 L 9.65625 -27.609375 L 12.34375 -27.609375 L 14.21875 -24.9375 L 12.03125 -24.9375 L 13.859375 -22.28125 L 14.875 -22.28125 L 14.875 -22.25 L 16.015625 -22.25 L 17.84375 -19.609375 L 18.265625 -19.609375 L 20.203125 -22.25 L 19.078125 -22.25 L 19.109375 -22.28125 L 18.09375 -22.28125 L 20.03125 -24.9375 L 22.21875 -24.9375 L 24.1875 -27.609375 L 21.515625 -27.609375 L 22.078125 -28.359375 C 22.171875 -28.546875 22.320312 -28.71875 22.53125 -28.875 C 22.71875 -29 22.96875 -29.0625 23.28125 -29.0625 L 27.15625 -29.0625 C 27.625 -29.0625 27.894531 -28.835938 27.96875 -28.390625 C 27.988281 -28.128906 27.929688 -27.867188 27.796875 -27.609375 L 30.46875 -27.609375 C 30.46875 -27.585938 30.445312 -27.550781 30.40625 -27.5 L 28.53125 -24.9375 L 26.34375 -24.9375 L 24.4375 -22.28125 L 25.46875 -22.28125 L 25.421875 -22.25 L 26.5625 -22.25 L 24.609375 -19.609375 L 22.046875 -19.609375 L 19.71875 -16.40625 L 22.640625 -16.40625 L 21.65625 -15.0625 L 22.75 -13.5 L 20 -13.5 L 21.125 -11.921875 L 23.421875 -11.921875 L 25.328125 -9.203125 L 23.5625 -9.203125 L 26.125 -5.53125 L 28.21875 -5.53125 L 29.96875 -3.03125 L 27.125 -3.03125 L 28.140625 -1.546875 C 28.285156 -1.390625 28.359375 -1.191406 28.359375 -0.953125 Z M 10.09375 -14.453125 L 10.09375 -15.375 L 6.953125 -15.375 L 6.953125 -14.453125 Z M 27.359375 -17.53125 L 27.359375 -18.234375 L 22.921875 -18.234375 L 22.921875 -17.53125 Z M 25.75 -12.375 L 25.75 -13.046875 L 22.75 -13.046875 L 22.75 -12.375 Z M 20.59375 -26.796875 L 20.59375 -27.46875 L 14.78125 -27.46875 L 14.78125 -26.796875 Z M 17.671875 -1.65625 L 17.671875 -2.359375 L 11.84375 -2.359375 L 11.84375 -1.65625 Z M 17.671875 -1.65625 "/></g></g></g></svg>